<svg width="680" height="540" viewBox="0 0 680 540" xmlns="http://www.w3.org/2000/svg" role="img">
<title>Topologia de rede hierárquica replicada do Packet Tracer</title>
<desc>Router0 conectado a dois switches centrais, que se ligam de forma redundante a dois switches de distribuição, cada um conectando dois switches de acesso 2960-24TT, que por sua vez conectam PCs, laptops e um servidor.</desc>
<rect x="0" y="0" width="680" height="540" fill="#FFFFFF"/>

<line x1="300" y1="76" x2="190" y2="126" stroke="#444441" stroke-width="1"/>
<line x1="300" y1="76" x2="400" y2="126" stroke="#444441" stroke-width="1"/>
<line x1="260" y1="154" x2="330" y2="154" stroke="#BA7517" stroke-width="1.5"/>

<line x1="190" y1="182" x2="154" y2="232" stroke="#A32D2D" stroke-width="1.5"/>
<line x1="190" y1="182" x2="437" y2="232" stroke="#A32D2D" stroke-width="1.5"/>
<line x1="400" y1="182" x2="154" y2="232" stroke="#A32D2D" stroke-width="1.5"/>
<line x1="400" y1="182" x2="437" y2="232" stroke="#A32D2D" stroke-width="1.5"/>

<line x1="154" y1="288" x2="92" y2="338" stroke="#444441" stroke-width="1"/>
<line x1="154" y1="288" x2="216" y2="338" stroke="#444441" stroke-width="1"/>
<line x1="437" y1="288" x2="342" y2="338" stroke="#444441" stroke-width="1"/>
<line x1="437" y1="288" x2="531" y2="338" stroke="#444441" stroke-width="1"/>

<line x1="92" y1="394" x2="63" y2="444" stroke="#444441" stroke-width="1"/>
<line x1="92" y1="394" x2="120" y2="444" stroke="#444441" stroke-width="1"/>
<line x1="216" y1="394" x2="184" y2="444" stroke="#444441" stroke-width="1"/>
<line x1="216" y1="394" x2="248" y2="444" stroke="#444441" stroke-width="1"/>
<line x1="342" y1="394" x2="308.5" y2="444" stroke="#444441" stroke-width="1"/>
<line x1="342" y1="394" x2="376" y2="444" stroke="#444441" stroke-width="1"/>
<line x1="531" y1="394" x2="454" y2="444" stroke="#444441" stroke-width="1"/>
<line x1="531" y1="394" x2="532" y2="444" stroke="#444441" stroke-width="1"/>
<line x1="531" y1="394" x2="606.5" y2="444" stroke="#444441" stroke-width="1"/>

<g>
<rect x="245" y="20" width="110" height="56" rx="6" fill="#E6F1FB" stroke="#185FA5" stroke-width="0.5"/>
<text x="300" y="42" text-anchor="middle" dominant-baseline="central" font-family="Arial, sans-serif" font-size="14" font-weight="500" fill="#0C447C">Router0</text>
<text x="300" y="60" text-anchor="middle" dominant-baseline="central" font-family="Arial, sans-serif" font-size="12" fill="#185FA5">2811</text>
</g>

<g>
<rect x="120" y="126" width="140" height="56" rx="6" fill="#E1F5EE" stroke="#0F6E56" stroke-width="0.5"/>
<text x="190" y="148" text-anchor="middle" dominant-baseline="central" font-family="Arial, sans-serif" font-size="14" font-weight="500" fill="#085041">Switch-PT</text>
<text x="190" y="166" text-anchor="middle" dominant-baseline="central" font-family="Arial, sans-serif" font-size="12" fill="#0F6E56">0(1)(1)(3)</text>
</g>
<g>
<rect x="330" y="126" width="140" height="56" rx="6" fill="#E1F5EE" stroke="#0F6E56" stroke-width="0.5"/>
<text x="400" y="148" text-anchor="middle" dominant-baseline="central" font-family="Arial, sans-serif" font-size="14" font-weight="500" fill="#085041">Switch-PT</text>
<text x="400" y="166" text-anchor="middle" dominant-baseline="central" font-family="Arial, sans-serif" font-size="12" fill="#0F6E56">0(1)(1)(2)</text>
</g>

<g>
<rect x="89" y="232" width="130" height="56" rx="6" fill="#E1F5EE" stroke="#0F6E56" stroke-width="0.5"/>
<text x="154" y="254" text-anchor="middle" dominant-baseline="central" font-family="Arial, sans-serif" font-size="14" font-weight="500" fill="#085041">Switch-PT</text>
<text x="154" y="272" text-anchor="middle" dominant-baseline="central" font-family="Arial, sans-serif" font-size="12" fill="#0F6E56">0(1)</text>
</g>
<g>
<rect x="372" y="232" width="130" height="56" rx="6" fill="#E1F5EE" stroke="#0F6E56" stroke-width="0.5"/>
<text x="437" y="254" text-anchor="middle" dominant-baseline="central" font-family="Arial, sans-serif" font-size="14" font-weight="500" fill="#085041">Switch-PT</text>
<text x="437" y="272" text-anchor="middle" dominant-baseline="central" font-family="Arial, sans-serif" font-size="12" fill="#0F6E56">0(1)(1)(1)</text>
</g>

<g>
<rect x="42" y="338" width="100" height="56" rx="6" fill="#E1F5EE" stroke="#0F6E56" stroke-width="0.5"/>
<text x="92" y="360" text-anchor="middle" dominant-baseline="central" font-family="Arial, sans-serif" font-size="14" font-weight="500" fill="#085041">2960-24TT</text>
<text x="92" y="378" text-anchor="middle" dominant-baseline="central" font-family="Arial, sans-serif" font-size="12" fill="#0F6E56">Switch1</text>
</g>
<g>
<rect x="166" y="338" width="100" height="56" rx="6" fill="#E1F5EE" stroke="#0F6E56" stroke-width="0.5"/>
<text x="216" y="360" text-anchor="middle" dominant-baseline="central" font-family="Arial, sans-serif" font-size="14" font-weight="500" fill="#085041">2960-24TT</text>
<text x="216" y="378" text-anchor="middle" dominant-baseline="central" font-family="Arial, sans-serif" font-size="12" fill="#0F6E56">Switch2</text>
</g>
<g>
<rect x="292" y="338" width="100" height="56" rx="6" fill="#E1F5EE" stroke="#0F6E56" stroke-width="0.5"/>
<text x="342" y="360" text-anchor="middle" dominant-baseline="central" font-family="Arial, sans-serif" font-size="14" font-weight="500" fill="#085041">2960-24TT</text>
<text x="342" y="378" text-anchor="middle" dominant-baseline="central" font-family="Arial, sans-serif" font-size="12" fill="#0F6E56">Switch3</text>
</g>
<g>
<rect x="481" y="338" width="100" height="56" rx="6" fill="#E1F5EE" stroke="#0F6E56" stroke-width="0.5"/>
<text x="531" y="360" text-anchor="middle" dominant-baseline="central" font-family="Arial, sans-serif" font-size="14" font-weight="500" fill="#085041">2960-24TT</text>
<text x="531" y="378" text-anchor="middle" dominant-baseline="central" font-family="Arial, sans-serif" font-size="12" fill="#0F6E56">Switch4</text>
</g>

<g><rect x="41" y="444" width="44" height="36" rx="5" fill="#F1EFE8" stroke="#5F5E5A" stroke-width="0.5"/><text x="63" y="462" text-anchor="middle" dominant-baseline="central" font-family="Arial, sans-serif" font-size="12" fill="#444441">PC0</text></g>
<g><rect x="91" y="444" width="58" height="36" rx="5" fill="#F1EFE8" stroke="#5F5E5A" stroke-width="0.5"/><text x="120" y="462" text-anchor="middle" dominant-baseline="central" font-family="Arial, sans-serif" font-size="12" fill="#444441">PC0(3)</text></g>
<g><rect x="155" y="444" width="58" height="36" rx="5" fill="#F1EFE8" stroke="#5F5E5A" stroke-width="0.5"/><text x="184" y="462" text-anchor="middle" dominant-baseline="central" font-family="Arial, sans-serif" font-size="12" fill="#444441">PC0(2)</text></g>
<g><rect x="219" y="444" width="58" height="36" rx="5" fill="#F1EFE8" stroke="#5F5E5A" stroke-width="0.5"/><text x="248" y="462" text-anchor="middle" dominant-baseline="central" font-family="Arial, sans-serif" font-size="12" fill="#444441">PC0(1)</text></g>
<g><rect x="283" y="444" width="51" height="36" rx="5" fill="#F1EFE8" stroke="#5F5E5A" stroke-width="0.5"/><text x="308.5" y="462" text-anchor="middle" dominant-baseline="central" font-family="Arial, sans-serif" font-size="12" fill="#444441">Lapt0</text></g>
<g><rect x="340" y="444" width="72" height="36" rx="5" fill="#F1EFE8" stroke="#5F5E5A" stroke-width="0.5"/><text x="376" y="462" text-anchor="middle" dominant-baseline="central" font-family="Arial, sans-serif" font-size="12" fill="#444441">Lapt0(3)</text></g>
<g><rect x="418" y="444" width="72" height="36" rx="5" fill="#F1EFE8" stroke="#5F5E5A" stroke-width="0.5"/><text x="454" y="462" text-anchor="middle" dominant-baseline="central" font-family="Arial, sans-serif" font-size="12" fill="#444441">Lapt0(2)</text></g>
<g><rect x="496" y="444" width="72" height="36" rx="5" fill="#F1EFE8" stroke="#5F5E5A" stroke-width="0.5"/><text x="532" y="462" text-anchor="middle" dominant-baseline="central" font-family="Arial, sans-serif" font-size="12" fill="#444441">Lapt0(1)</text></g>
<g><rect x="574" y="444" width="65" height="36" rx="5" fill="#FAECE7" stroke="#993C1D" stroke-width="0.5"/><text x="606.5" y="462" text-anchor="middle" dominant-baseline="central" font-family="Arial, sans-serif" font-size="12" fill="#712B13">Server0</text></g>

<rect x="55" y="500" width="12" height="12" rx="2" fill="#E6F1FB" stroke="#185FA5" stroke-width="0.5"/>
<text x="72" y="510" font-family="Arial, sans-serif" font-size="12" fill="#3D3D3A">Roteador</text>
<rect x="150" y="500" width="12" height="12" rx="2" fill="#E1F5EE" stroke="#0F6E56" stroke-width="0.5"/>
<text x="167" y="510" font-family="Arial, sans-serif" font-size="12" fill="#3D3D3A">Switches</text>
<rect x="255" y="500" width="12" height="12" rx="2" fill="#F1EFE8" stroke="#5F5E5A" stroke-width="0.5"/>
<text x="272" y="510" font-family="Arial, sans-serif" font-size="12" fill="#3D3D3A">PCs / laptops</text>
<rect x="390" y="500" width="12" height="12" rx="2" fill="#FAECE7" stroke="#993C1D" stroke-width="0.5"/>
<text x="407" y="510" font-family="Arial, sans-serif" font-size="12" fill="#3D3D3A">Servidor</text>

<text x="340" y="530" text-anchor="middle" font-family="Arial, sans-serif" font-size="12" fill="#5F5E5A">Linhas: preto = link padrao . laranja = enlace entre nucleos . vermelho = enlaces redundantes</text>
</svg>
